# AST/ASF file generated using VICON BodyLanguage
# -----------------------------------------------
:version 1.10
:name VICON
:units
  mass 1.0
  length 0.45
  angle deg
:documentation
   .ast/.asf automatically generated from VICON data using
   VICON BodyBuilder and BodyLanguage model FoxedUp or BRILLIANT.MOD
:root
   order TX TY TZ RX RY RZ
   axis XYZ
   position 0 0 0  
   orientation 0 0 0 
:bonedata
  begin
     id 1 
     name lhipjoint
     direction 0.521689 -0.742065 0.420928 
     length 2.47002 
     axis 0 0 0  XYZ
  end
  begin
     id 2 
     name lfemur
     direction 0.34202 -0.939693 0  
     length 7.24654  
     axis 0 0 20  XYZ
    dof rx ry rz
    limits (-160.0 20.0)
           (-70.0 70.0)
           (-60.0 70.0)
  end
  begin
     id 3 
     name ltibia
     direction 0.34202 -0.939693 0   
     length 8.04849   
     axis 0 0 20   XYZ
    dof rx
    limits (-10.0 170.0)
  end
  begin
     id 4 
     name lfoot
     direction 0.0745411 -0.2048 0.975961   
     length 1.72367   
     axis -90 7.62852e-016 20   XYZ
    dof rx rz
    limits (-45.0 90.0)
           (-70.0 20.0)
  end
  begin
     id 5 
     name ltoes
     direction 1.53556e-011 -4.21901e-011 1   
     length 0.87311   
     axis -90 7.62852e-016 20   XYZ
    dof rx
    limits (-90.0 20.0)
  end
  begin
     id 6 
     name rhipjoint
     direction -0.52849 -0.738415 0.418857   
     length 2.48223  
     axis 0 0 0  XYZ 
  end
  begin
     id 7 
     name rfemur
     direction -0.34202 -0.939693 0   
     length 7.15571   
     axis 0 0 -20   XYZ
    dof rx ry rz
    limits (-160.0 20.0)
           (-70.0 70.0)
           (-70.0 60.0)
  end
  begin
     id 8 
     name rtibia
     direction -0.34202 -0.939693 0   
     length 7.81659   
     axis 0 0 -20   XYZ
    dof rx
    limits (-10.0 170.0)
 end
 begin
     id 9 
     name rfoot
     direction -0.0917348 -0.252039 0.963359   
     length 1.84382  
     axis -90 -7.62852e-016 -20   XYZ
    dof rx rz
    limits (-45.0 90.0)
           (-20.0 70.0)
  end
  begin
     id 10 
     name rtoes
     direction -1.53551e-011 -4.21879e-011 1   
     length 0.927771   
     axis -90 -7.62852e-016 -20   XYZ
    dof rx
    limits (-90.0 20.0)
  end
  begin
     id 11 
     name lowerback
     direction 0.00583058 0.999822 0.0179296   
     length 2.1429   
     axis 0 0 0   XYZ
    dof rx ry rz
    limits (-20.0 45.0)
           (-30.0 30.0)
           (-30.0 30.0)
  end
  begin
     id 12 
     name upperback
     direction -0.0137999 0.999752 -0.0175071   
     length 2.14252   
     axis 0 0 0   XYZ
    dof rx ry rz
    limits (-20.0 45.0)
           (-30.0 30.0)
           (-30.0 30.0)
  end
  begin
     id 13 
     name thorax
     direction -0.0158036 0.99955 -0.0254909   
     length 2.1383   
     axis 0 0 0   XYZ
    dof rx ry rz
    limits (-20.0 45.0)
           (-30.0 30.0)
           (-30.0 30.0)
  end
  begin
     id 14 
     name lowerneck
     direction -0.0101179 0.999403 -0.0330262   
     length 1.65808   
     axis 0 0 0   XYZ
    dof rx ry rz
    limits (-20.0 45.0)
           (-30.0 30.0)
           (-30.0 30.0)
  end
  begin
     id 15 
     name upperneck
     direction 0.0497734 0.995978 -0.074501   
     length 1.5897   
     axis 0 0 0   XYZ
    dof rx ry rz
    limits (-20.0 45.0)
           (-30.0 30.0)
           (-30.0 30.0)
  end
  begin
     id 16
     name head
     direction 0.0189524 0.999519 -0.0245438  
     length 1.74024  
     axis 0 0 0   XYZ
    dof rx ry rz
    limits (-20.0 45.0)
           (-30.0 30.0)
           (-30.0 30.0)
  end
  begin
     id 17 
     name lclavicle
     direction 0.945604 0.324422 0.0241537  
     length 3.59089  
     axis 0 0 0   XYZ
    dof ry rz
    limits (-20.0 10.0)
           (0.0 20.0)
  end
  begin
     id 18 
     name lhumerus
     direction 1 -4.48964e-011 -2.63524e-027   
     length 5.2391   
     axis 180 -30 -90   XYZ
    dof rx ry rz
    limits (-60.0 90.0)
           (-90.0 90.0)
           (-90.0 90.0)
  end
  begin
     id 19
     name lradius
     direction 1 -4.48969e-011 3.86978e-028   
     length 3.31467   
     axis 180 -30 -90   XYZ
    dof rx
    limits (-10.0 170.0)
  end
  begin
     id 20
     name lwrist
     direction 1 -4.48963e-011 7.20928e-028   
     length 1.65734   
     axis -5.52449e-016 90 90   XYZ
    dof ry
    limits (-180.0 0.0)
 end
  begin
     id 21 
     name lhand
     direction 1 -4.48964e-011 1.44186e-027   
     length 0.9659   
     axis -9.20027e-016 90 90   XYZ
    dof rx rz
    limits (-90.0 90.0)
           (-45.0 45.0)
  end
  begin
     id 22 
     name lfingers
     direction 1 -4.48965e-011 2.88371e-027   
     length 0.778733   
     axis -1.84005e-015 90 90   XYZ
    dof rx
    limits (0.0 90.0)
  end
  begin
     id 23
     name lthumb
     direction 0.707107 -6.34931e-011 0.707107   
     length 1.11811   
     axis -90 45 2.85299e-015   XYZ
    dof rx rz
    limits (-45.0 45.0)
           (-45.0 45.0)
  end
  begin
     id 24 
     name rclavicle
     direction -0.923762 0.370785 0.0958234   
     length 3.54196  
     axis 0 0 0   XYZ 
    dof ry rz
    limits (-10.0 20.0)
           (-20.0 0.0)
  end
  begin
     id 25 
     name rhumerus
     direction -1 -4.48966e-011 1.18702e-017  
     length 5.30252   
     axis 180 30 90   XYZ
    dof rx ry rz
    limits (-90.0 60.0)
           (-90.0 90.0)
           (-90.0 90.0)
  end
  begin
     id 26 
     name rradius
     direction -1 -4.48966e-011 4.46736e-027   
     length 3.67875   
     axis 180 30 90   XYZ
    dof rx
    limits (-10.0 170.0)
  end
  begin
     id 27 
     name rwrist
     direction -1 -4.48966e-011 7.20928e-028   
     length 1.83937   
     axis -5.52449e-016 -90 -90   XYZ
    dof ry
    limits (-180.0 0.0)
  end
  begin
     id 28
     name rhand
     direction -1 -4.48973e-011 1.44186e-027   
     length 0.594811   
     axis -9.20027e-016 -90 -90   XYZ
    dof rx rz
    limits (-90.0 90.0)
           (-45.0 45.0)
  end
  begin
     id 29
     name rfingers
     direction -1 -4.48963e-011 2.88371e-027   
     length 0.479552   
     axis -1.84005e-015 -90 -90   XYZ
    dof rx
    limits (0.0 90.0)
  end
  begin
     id 30
     name rthumb
     direction -0.707107 -6.34932e-011 0.707107   
     length 0.688544   
     axis -90 -45 -2.85299e-015   XYZ
    dof rx rz
    limits (-45.0 45.0)
           (-45.0 45.0)
  end
:hierarchy
  begin
    root lhipjoint rhipjoint lowerback
    lhipjoint lfemur
    lfemur ltibia
    ltibia lfoot
    lfoot ltoes
    rhipjoint rfemur
    rfemur rtibia
    rtibia rfoot
    rfoot rtoes
    lowerback upperback
    upperback thorax
    thorax lowerneck lclavicle rclavicle
    lowerneck upperneck
    upperneck head
    lclavicle lhumerus
    lhumerus lradius
    lradius lwrist
    lwrist lhand lthumb
    lhand lfingers
    rclavicle rhumerus
    rhumerus rradius
    rradius rwrist
    rwrist rhand rthumb
    rhand rfingers
  end

#!OML:ASF E:\acrobat2\Project_11_07_03\Capture day 1\Session 1\Acrobat.ASF
:FULLY-SPECIFIED
:DEGREES
83
root 8.80815 17.9706 -32.1965 101.28 -88.6358 -96.7949
lowerback -7.72804 0.54899 1.74621
upperback -4.01771 0.50372 -0.56651
thorax 0.204419 0.173002 -1.52471
lowerneck -3.60906 -0.21452 -0.430223
upperneck 6.17881 -0.593763 4.35139
head 2.60879 -0.191054 1.45253
rclavicle 1.39149e-015 6.36111e-015
rhumerus -12.2645 -29.3961 -7.442
rradius 20.8363
rwrist 19.8246
rhand -6.42083 -49.6605
rfingers 7.12502
rthumb 19.4278 -78.7099
lclavicle 1.39149e-015 6.36111e-015
lhumerus 0.31651 12.3081 6.80492
lradius 20.2902
lwrist 3.38294
lhand -7.40575 -5.66395
lfingers 7.12502
lthumb 18.4805 23.4782
rfemur 8.77461 16.5643 15.2997
rtibia -2.8565
rfoot -25.5154 -29.142
rtoes 3.57676
lfemur 9.03785 -8.0531 -6.0411
ltibia -2.88272
lfoot -28.0325 8.07582
ltoes 31.9961
84
root 8.81009 17.9714 -32.1964 100.746 -88.6149 -96.2703
lowerback -7.70286 0.580731 1.80361
upperback -4.05591 0.54177 -0.600094
thorax 0.153297 0.189551 -1.58888
lowerneck -3.52511 -0.224326 -0.400324
upperneck 6.22733 -0.615728 4.40882
head 2.61045 -0.200723 1.46531
rclavicle -1.31695e-015 4.96962e-015
rhumerus -12.3964 -29.638 -7.40633
rradius 20.8423
rwrist 20.0707
rhand -6.40525 -49.4869
rfingers 7.12502
rthumb 19.4428 -78.5348
lclavicle -1.31695e-015 4.96962e-015
lhumerus 0.349372 12.1087 6.78486
lradius 20.4038
lwrist 3.50578
lhand -7.34901 -5.53457
lfingers 7.12502
lthumb 18.5351 23.6024
rfemur 8.76337 16.5517 15.3359
rtibia -2.84028
rfoot -25.3478 -29.2397
rtoes 2.70969
lfemur 8.99694 -7.8034 -5.93316
ltibia -2.82985
lfoot -27.8058 8.0173
ltoes 31.6054
85
root 8.81159 17.9712 -32.1967 101.501 -88.6411 -97.0174
lowerback -7.71212 0.612866 1.76293
upperback -4.08178 0.586227 -0.625058
thorax 0.133415 0.211246 -1.58834
lowerneck -3.52487 -0.227505 -0.241878
upperneck 6.33003 -0.628638 4.31574
head 2.64296 -0.205372 1.40756
rclavicle -2.93207e-015 3.57812e-015
rhumerus -12.5219 -29.6313 -7.36474
rradius 20.8755
rwrist 20.004
rhand -6.45058 -49.3955
rfingers 7.12502
rthumb 19.3992 -78.4478
lclavicle -2.93207e-015 3.57812e-015
lhumerus 0.425409 12.1537 6.83976
lradius 20.4747
lwrist 3.50599
lhand -7.2564 -5.54939
lfingers 7.12502
lthumb 18.6242 23.5791
rfemur 8.73736 16.6955 15.3125
rtibia -2.79372
rfoot -25.5487 -29.1848
rtoes 3.27931
lfemur 9.00662 -7.97673 -6.0148
ltibia -2.85782
lfoot -28.0016 8.03786
ltoes 31.6852
86
root 8.81374 17.9711 -32.196 102.257 -88.6518 -97.7822
lowerback -7.70555 0.620845 1.74756
upperback -4.08605 0.597933 -0.63541
thorax 0.125824 0.217057 -1.58951
lowerneck -3.60993 -0.219076 -0.177692
upperneck 6.45588 -0.629699 4.33141
head 2.70079 -0.201798 1.40299
rclavicle -6.85807e-015 7.95139e-016
rhumerus -12.5205 -29.5934 -7.39512
rradius 20.8568
rwrist 19.921
rhand -6.43514 -49.3695
rfingers 7.12502
rthumb 19.414 -78.4203
lclavicle -6.85807e-015 7.95139e-016
lhumerus 0.39535 11.863 6.75917
lradius 20.525
lwrist 3.84928
lhand -7.34773 -5.75137
lfingers 7.12502
lthumb 18.5364 23.3855
rfemur 8.69996 16.683 15.2718
rtibia -2.72634
rfoot -25.4917 -29.08
rtoes 3.48052
lfemur 9.03974 -8.21115 -6.09953
ltibia -2.89098
lfoot -28.254 8.03643
ltoes 32.1598
87
root 8.81589 17.9716 -32.1949 102.277 -88.6275 -97.8203
lowerback -7.69231 0.60445 1.78432
upperback -4.0888 0.573791 -0.616329
thorax 0.114827 0.204499 -1.59248
lowerneck -3.69386 -0.203784 -0.306078
upperneck 6.58923 -0.620634 4.49545
head 2.7639 -0.193286 1.48149
rclavicle 4.96962e-016 -2.18663e-015
rhumerus -12.4081 -29.5576 -7.47588
rradius 20.829
rwrist 19.8603
rhand -6.41829 -49.3724
rfingers 7.12502
rthumb 19.4302 -78.4216
lclavicle 4.96962e-016 -2.18663e-015
lhumerus 0.28262 11.6306 6.63564
lradius 20.5635
lwrist 4.11665
lhand -7.45664 -6.01609
lfingers 7.12502
lthumb 18.4316 23.1307
rfemur 8.66232 16.5253 15.2553
rtibia -2.67472
rfoot -25.2704 -29.0088
rtoes 2.91202
lfemur 9.04207 -8.22676 -6.0776
ltibia -2.87274
lfoot -28.252 8.14563
ltoes 32.0956
88
root 8.81628 17.9728 -32.1959 102.026 -88.6253 -97.5742
lowerback -7.70789 0.576311 1.73813
upperback -4.09912 0.5382 -0.563391
thorax 0.110528 0.187535 -1.51466
lowerneck -3.7181 -0.176209 -0.462597
upperneck 6.67341 -0.585658 4.60264
head 2.79822 -0.175337 1.5467
rclavicle 4.22417e-016 -1.25234e-014
rhumerus -12.283 -29.4953 -7.53977
rradius 20.8472
rwrist 19.7732
rhand -6.46077 -49.4731
rfingers 7.12502
rthumb 19.3894 -78.5264
lclavicle 4.22417e-016 -1.25234e-014
lhumerus 0.212093 11.9591 6.6658
lradius 20.5419
lwrist 3.83068
lhand -7.41638 -6.17682
lfingers 7.12502
lthumb 18.4703 22.9663
rfemur 8.65491 16.5008 15.2534
rtibia -2.65575
rfoot -25.4308 -28.949
rtoes 3.18481
lfemur 9.02978 -8.17681 -6.06108
ltibia -2.84823
lfoot -28.2042 8.1878
ltoes 31.9519
89
root 8.81619 17.9742 -32.1979 101.823 -88.6044 -97.397
lowerback -7.70273 0.55609 1.68415
upperback -4.10748 0.514036 -0.480733
thorax 0.097067 0.176759 -1.4011
lowerneck -3.74144 -0.0851574 -0.503788
upperneck 6.66483 -0.452675 4.51769
head 2.79519 -0.112033 1.53085
rclavicle 2.23633e-015 -6.16232e-015
rhumerus -12.1706 -29.4177 -7.5474
rradius 20.8801
rwrist 19.7072
rhand -6.49059 -49.6108
rfingers 7.12502
rthumb 19.3607 -78.667
lclavicle 2.23633e-015 -6.16232e-015
lhumerus 0.175 12.3702 6.78201
lradius 20.4736
lwrist 3.44233
lhand -7.25945 -6.18206
lfingers 7.12502
lthumb 18.6213 22.9467
rfemur 8.66729 16.4393 15.2744
rtibia -2.63084
rfoot -25.5102 -28.8521
rtoes 3.36107
lfemur 9.03771 -7.92886 -5.95869
ltibia -2.82591
lfoot -27.9803 7.99694
ltoes 32.0841
90
root 8.81648 17.9753 -32.1985 102.308 -88.5327 -97.9106
lowerback -7.68476 0.572238 1.74064
upperback -4.12448 0.531301 -0.436938
thorax 0.0702827 0.184388 -1.38656
lowerneck -3.59749 -0.146317 -0.624733
upperneck 6.70148 -0.531487 4.55705
head 2.7842 -0.154832 1.56198
rclavicle -8.94531e-016 0
rhumerus -12.1577 -29.3616 -7.51994
rradius 20.8861
rwrist 19.6787
rhand -6.47209 -49.6364
rfingers 7.12502
rthumb 19.3785 -78.6908
lclavicle -8.94531e-016 0
lhumerus 0.199493 12.3033 6.80949
lradius 20.4429
lwrist 3.58532
lhand -7.09525 -6.07127
lfingers 7.12502
lthumb 18.7792 23.0422
rfemur 8.64184 16.2367 15.3038
rtibia -2.57531
rfoot -25.3765 -28.6499
rtoes 3.58385
lfemur 9.06703 -7.71594 -5.81498
ltibia -2.82078
lfoot -27.7802 7.84179
ltoes 32.3716
91
root 8.81692 17.977 -32.198 101.609 -88.4444 -97.2013
lowerback -7.70636 0.613243 1.90243
upperback -4.15345 0.573926 -0.47361
thorax 0.055457 0.201951 -1.51194
lowerneck -3.63335 -0.112046 -0.411124
upperneck 6.80274 -0.499022 4.47542
head 2.82175 -0.134736 1.49974
rclavicle -1.2424e-015 -3.97569e-016
rhumerus -12.2957 -29.2839 -7.4905
rradius 20.8791
rwrist 19.6074
rhand -6.50183 -49.5988
rfingers 7.12502
rthumb 19.3499 -78.656
lclavicle -1.2424e-015 -3.97569e-016
lhumerus 0.318174 11.8297 6.72422
lradius 20.4579
lwrist 4.12917
lhand -7.14407 -5.9676
lfingers 7.12502
lthumb 18.7323 23.1504
rfemur 8.60771 16.1491 15.3865
rtibia -2.55235
rfoot -25.3314 -28.552
rtoes 4.13956
lfemur 9.07223 -7.87815 -5.75899
ltibia -2.8429
lfoot -27.9209 7.89389
ltoes 32.4853
92
root 8.81807 17.9782 -32.1962 99.5772 -88.3837 -95.1398
lowerback -7.7425 0.62927 2.03869
upperback -4.18475 0.5844 -0.499185
thorax 0.044781 0.203808 -1.61393
lowerneck -3.76272 -0.0545933 -0.29187
upperneck 7.02244 -0.442783 4.48297
head 2.91819 -0.100028 1.4864
rclavicle 4.02539e-015 7.95139e-016
rhumerus -12.381 -29.2837 -7.47662
rradius 20.864
rwrist 19.596
rhand -6.5552 -49.6072
rfingers 7.12502
rthumb 19.2986 -78.6696
lclavicle 4.02539e-015 7.95139e-016
lhumerus 0.387728 11.4191 6.64437
lradius 20.4533
lwrist 4.51679
lhand -7.36863 -5.95182
lfingers 7.12502
lthumb 18.5163 23.1869
rfemur 8.60698 16.2232 15.4949
rtibia -2.57639
rfoot -25.3527 -28.6752
rtoes 4.12665
lfemur 9.02998 -8.04351 -5.72676
ltibia -2.84357
lfoot -28.0401 7.95584
ltoes 32.4501
